# Wavefront OBJ exported by MilkShape 3D

v -3.000000 20.000000 -139.000000
v 0.000000 -45.000000 -130.000000
v 0.000000 -17.000000 -109.000000
v -3.000000 -2.000000 -70.000000
v -3.000000 -1.000000 -49.000000
v -3.000000 -9.000000 -37.000000
v -3.000000 -22.000000 -39.000000
v -3.000000 -60.000000 -62.000000
v -3.000000 -67.000000 -36.000000
v -3.000000 -33.000000 -19.000000
v -5.000000 -31.000000 11.000000
v -5.000000 -86.000000 26.000000
v -5.000000 -79.000000 56.000000
v -5.000000 -24.000000 46.000000
v -5.000000 -2.000000 48.000000
v -3.000000 -3.000000 66.000000
v -5.000000 1.000000 62.000000
v -3.000000 0.000000 141.000000
v -3.000000 8.000000 147.000000
v -3.000000 10.000000 251.000000
v -3.000000 20.000000 251.000000
v -3.000000 20.000000 171.000000
v -3.000000 48.000000 170.000000
v -3.000000 48.000000 162.000000
v -3.000000 25.000000 147.000000
v -3.000000 29.000000 141.000000
v -3.000000 29.000000 66.000000
v -5.000000 25.000000 62.000000
v -5.000000 26.000000 52.000000
v -5.000000 43.000000 51.000000
v -3.000000 51.000000 -28.000000
v -3.000000 28.000000 -39.000000
v -3.000000 22.000000 -45.000000
v 0.000000 36.000000 -10.000000
v 0.000000 37.000000 45.000000
v -3.000000 32.000000 48.000000
v -3.000000 31.000000 -4.000000
v 0.000000 39.000000 163.000000
v -3.000000 26.000000 152.000000
v -3.000000 26.000000 167.000000
v -14.000000 19.000000 66.000000
v -14.000000 10.000000 66.000000
v -14.000000 18.000000 142.000000
v -14.000000 11.000000 142.000000
v -9.000000 19.000000 -30.000000
v -9.000000 19.000000 48.000000
v -9.000000 10.000000 46.000000
v -9.000000 10.000000 -30.000000
v -3.000000 0.000000 -137.000000
v -3.000000 0.000000 -56.000000
v -3.000000 20.000000 -55.000000
v -9.000000 10.000000 -131.000000
v -9.000000 10.000000 -68.000000
v 3.000000 20.000000 -139.000000
v 3.000000 -2.000000 -70.000000
v 3.000000 -1.000000 -49.000000
v 3.000000 -9.000000 -37.000000
v 3.000000 -22.000000 -39.000000
v 3.000000 -60.000000 -62.000000
v 3.000000 -67.000000 -36.000000
v 3.000000 -33.000000 -19.000000
v 5.000000 -31.000000 11.000000
v 5.000000 -86.000000 26.000000
v 5.000000 -79.000000 56.000000
v 5.000000 -24.000000 46.000000
v 5.000000 -2.000000 48.000000
v 3.000000 -3.000000 66.000000
v 5.000000 1.000000 62.000000
v 3.000000 0.000000 141.000000
v 3.000000 8.000000 147.000000
v 3.000000 10.000000 251.000000
v 3.000000 20.000000 251.000000
v 3.000000 20.000000 171.000000
v 3.000000 48.000000 170.000000
v 3.000000 48.000000 162.000000
v 3.000000 25.000000 147.000000
v 3.000000 29.000000 141.000000
v 3.000000 29.000000 66.000000
v 5.000000 25.000000 62.000000
v 5.000000 26.000000 52.000000
v 5.000000 43.000000 51.000000
v 3.000000 51.000000 -28.000000
v 3.000000 28.000000 -39.000000
v 3.000000 22.000000 -45.000000
v 3.000000 32.000000 48.000000
v 3.000000 31.000000 -4.000000
v 3.000000 26.000000 152.000000
v 3.000000 26.000000 167.000000
v 14.000000 19.000000 66.000000
v 14.000000 10.000000 66.000000
v 14.000000 18.000000 142.000000
v 14.000000 11.000000 142.000000
v 9.000000 19.000000 -30.000000
v 9.000000 19.000000 48.000000
v 9.000000 10.000000 46.000000
v 9.000000 10.000000 -30.000000
v 3.000000 0.000000 -137.000000
v 3.000000 0.000000 -56.000000
v 3.000000 20.000000 -55.000000
v 9.000000 10.000000 -131.000000
v 9.000000 10.000000 -68.000000
v 0.000000 -12.000000 -73.000000
# 102 vertices

vt 0.050782 0.975955
vt 0.100369 0.912943
vt 0.251886 0.917144
vt 0.268416 0.942349
vt 0.271171 0.870935
vt 0.260151 0.896140
vt 0.116898 0.891939
vt 0.020478 0.879337
vt 0.068476 0.094160
vt 0.093968 0.258748
vt 0.071623 0.254453
vt 0.035915 0.145268
vt 0.509769 0.960358
vt 0.499137 0.896317
vt 0.544944 0.782708
vt 0.459706 0.763200
vt 0.479311 0.701123
vt 0.628078 0.761974
vt 0.720646 0.852599
vt 0.719387 0.971770
vt 0.707226 0.551606
vt 0.738226 0.614201
vt 0.384091 0.253246
vt 0.389531 0.198719
vt 0.550172 0.202281
vt 0.555545 0.254029
vt 0.370535 0.238249
vt 0.391527 0.167963
vt 0.552828 0.178409
vt 0.379646 0.100764
vt 0.558464 0.124639
vt 0.367276 0.119387
vt 0.324823 0.116443
vt 0.338207 0.241482
vt 0.577924 0.247993
vt 0.584386 0.152170
vt 0.594709 0.251356
vt 0.548633 0.561031
vt 0.466626 0.561031
vt 0.570502 0.530897
vt 0.673100 0.260142
vt 0.949282 0.254668
vt 0.963745 0.304202
vt 0.565035 0.671520
vt 0.526765 0.626320
vt 0.521297 0.671520
vt 0.439290 0.556008
vt 0.111340 0.180142
vt 0.315296 0.170896
vt 0.319842 0.208751
vt 0.116122 0.216779
vt 0.052953 0.722094
vt 0.051258 0.655799
vt 0.114685 0.692723
vt 0.037518 0.256065
vt 0.015454 0.164414
vt 0.383911 0.638170
vt 0.417074 0.696359
vt 0.364706 0.668475
vt 0.119175 0.738989
vt 0.444821 0.840076
vt 0.315362 0.763937
vt 0.270997 0.871977
vt 0.071559 0.285353
vt 0.094700 0.279582
vt 0.071334 0.444767
vt 0.040702 0.393161
vt 0.913008 0.854074
vt 0.948363 0.912118
vt 0.984164 0.902727
vt 0.847717 0.991756
vt 0.822122 0.914441
vt 0.911707 0.762095
vt 0.984164 0.642291
vt 0.923237 0.653861
vt 0.767490 0.637145
vt 0.754817 0.730168
vt 0.550116 0.326536
vt 0.389727 0.329886
vt 0.385102 0.273686
vt 0.554835 0.274916
vt 0.370194 0.288174
vt 0.552868 0.349852
vt 0.390780 0.360911
vt 0.566385 0.402128
vt 0.372463 0.426730
vt 0.365867 0.400188
vt 0.327561 0.412116
vt 0.338532 0.286643
vt 0.577234 0.282478
vt 0.580301 0.364126
vt 0.593853 0.281064
vt 0.463990 0.561031
vt 0.670336 0.296630
vt 0.959636 0.385593
vt 0.962027 0.335210
vt 0.435773 0.556008
vt 0.320825 0.320086
vt 0.317001 0.358081
vt 0.113124 0.357159
vt 0.117323 0.320451
vt 0.103117 0.597921
vt 0.049266 0.634724
vt 0.043333 0.570775
vt 0.018992 0.380291
vt 0.037601 0.285327
vt 0.358712 0.586660
vt 0.390389 0.549546
vt 0.403654 0.620032
vt 0.103129 0.557140
vt 0.265676 0.502294
vt 0.348397 0.412517
vt 0.988999 0.281721
vt 0.962267 0.227081
vt 0.465756 0.441263
vt 0.442198 0.541193
vt 0.442198 0.441263
vt 0.465756 0.541193
vt 0.576649 0.517403
vt 0.553091 0.517403
vt 0.553091 0.488852
vt 0.576649 0.488852
vt 0.598234 0.512307
vt 0.598234 0.458773
vt 0.621791 0.512307
vt 0.621791 0.458773
vt 0.511576 0.474761
vt 0.535134 0.474761
vt 0.523355 0.521157
vt 0.511874 0.473691
vt 0.535432 0.473691
vt 0.475266 0.523066
vt 0.498824 0.440981
vt 0.498824 0.523066
vt 0.475266 0.440981
vt 0.127430 0.798562
vt 0.150418 0.798562
vt 0.138924 0.855072
vt 0.037374 0.863606
vt 0.020119 0.863606
vt 0.020119 0.758691
vt 0.037374 0.758691
vt 0.182662 0.853037
vt 0.161309 0.853037
vt 0.161309 0.795722
vt 0.182662 0.795722
vt 0.317989 0.777538
vt 0.287569 0.972586
vt 0.279964 0.777538
vt 0.310384 0.972586
vt 0.044872 0.758845
vt 0.060813 0.758845
vt 0.060813 0.865998
vt 0.044872 0.865998
vt 0.444821 0.691039
vt 0.151037 0.771572
vt 0.112918 0.524494
vt 0.103715 0.758054
vt 0.043211 0.740140
vt 0.005128 0.141608
vt 0.023008 0.122369
vt 0.055083 0.074192
vt 0.499795 0.972951
vt 0.489065 0.912831
vt 0.448452 0.758951
vt 0.477566 0.671545
vt 0.546210 0.743932
vt 0.617167 0.700169
vt 0.706815 0.497269
vt 0.757608 0.590683
vt 0.739690 0.857981
vt 0.738259 0.972951
vt 0.362589 0.074192
vt 0.323952 0.076060
vt 0.378385 0.078445
vt 0.563451 0.101738
vt 0.592751 0.121070
# 177 texture coordinates

vn -0.736684 0.534512 -0.414238
vn 0.000000 0.836981 0.547232
vn 0.000000 -0.646298 -0.763085
vn -0.979469 0.194829 -0.051799
vn -0.850023 0.261902 0.457021
vn -0.684433 0.483558 -0.545641
vn -0.706285 0.693924 0.140110
vn -0.826853 0.401764 -0.393573
vn -0.908941 -0.256799 -0.328450
vn -0.720683 0.640992 -0.264092
vn -0.714924 -0.670110 -0.199593
vn -0.561276 0.230661 -0.794836
vn -0.754555 -0.554555 0.350879
vn -0.712035 0.024918 -0.701701
vn -0.383560 -0.912277 0.143636
vn -0.951644 -0.242838 -0.188160
vn -0.450502 0.039802 0.891888
vn -0.867361 -0.375092 0.327095
vn -0.327982 -0.811400 -0.483796
vn -0.809862 -0.321902 0.490411
vn -0.379604 0.861581 -0.337015
vn -0.843609 0.292804 -0.450099
vn -0.806144 0.497150 0.320895
vn -0.243944 0.926918 0.285158
vn -0.620374 0.692737 -0.367766
vn -0.860566 -0.376016 -0.343567
vn -0.831412 -0.329005 0.447783
vn -0.427129 -0.850011 -0.308288
vn -0.225962 -0.855546 0.465813
vn -0.592980 -0.536965 -0.600037
vn -0.773703 0.579731 0.255528
vn -0.767862 -0.421620 0.482312
vn -0.967509 0.025829 0.251515
vn -0.786527 0.482089 -0.385962
vn -0.960981 0.199056 0.192074
vn -0.573685 -0.573579 0.584716
vn -0.408248 0.816497 0.408248
vn -0.765602 0.491061 0.415586
vn 0.000000 -0.997888 -0.064954
vn -0.934498 0.336903 -0.114935
vn -0.967413 -0.070344 -0.243234
vn -0.914182 -0.202703 0.350975
vn -0.961637 0.198236 0.189625
vn -0.959277 0.199734 -0.199734
vn -0.743849 -0.655042 0.132696
vn -0.834210 0.548944 0.052491
vn -0.992831 -0.076948 0.091465
vn -0.599284 0.694269 -0.398560
vn -0.753168 -0.270946 -0.599439
vn -0.966885 -0.025394 -0.253944
vn -0.691814 -0.678504 0.247033
vn 0.000000 -0.299002 -0.954252
vn 0.000000 -0.979825 0.199859
vn 0.945012 0.200176 -0.258615
vn 0.800187 0.506959 0.320457
vn 0.594576 0.795935 0.113877
vn 0.761496 0.241797 -0.601380
vn 0.855423 0.400216 0.328753
vn 0.829477 0.371192 -0.417354
vn 0.720683 0.575296 -0.386846
vn 0.913483 -0.141318 -0.381547
vn 0.714924 -0.632481 -0.298081
vn 0.916747 -0.342322 0.205891
vn 0.561276 0.333304 -0.757547
vn 0.712035 -0.503206 -0.489683
vn 0.383560 -0.713439 0.586418
vn 0.845113 -0.428947 -0.319043
vn 0.863008 -0.237075 0.446107
vn 0.710343 0.031379 0.703156
vn 0.568079 -0.451598 0.688001
vn 0.570357 -0.705507 -0.420657
vn 0.806144 0.497150 0.320895
vn 0.843609 0.292804 -0.450099
vn 0.374699 0.905226 -0.200418
vn 0.367767 0.888110 0.275697
vn 0.599585 0.612544 -0.515061
vn 0.831412 -0.329005 0.447783
vn 0.860566 -0.376016 -0.343567
vn 0.339564 -0.822309 0.456622
vn 0.420647 -0.892785 -0.161216
vn 0.451301 -0.706827 -0.544722
vn 0.669298 0.557048 0.491669
vn 0.616790 -0.592972 0.517643
vn 0.944059 0.220278 0.245419
vn 0.866647 0.359032 0.346438
vn 0.873117 0.232584 -0.428453
vn 0.813893 -0.406871 0.414771
vn 0.408248 0.408248 0.816497
vn 0.948153 0.261678 0.180359
vn 0.704175 0.644392 -0.298154
vn 0.961637 0.198236 0.189625
vn 0.914182 -0.202703 0.350975
vn 0.967413 -0.070344 -0.243234
vn 0.959277 0.199734 -0.199734
vn 0.992831 -0.076948 0.091465
vn 0.644928 0.764212 0.006931
vn 0.529913 -0.842767 0.094532
vn 0.966885 -0.025394 -0.253944
vn 0.832260 -0.280952 -0.477922
vn 0.614404 0.438579 -0.655863
vn 0.787492 -0.562783 0.251260
vn 0.000000 -0.647521 0.762048
# 102 normals

g M4A1
s 1
f 31/1/1 34/2/2 35/3/3
f 30/4/4 31/1/1 35/3/3
f 29/5/5 36/6/6 37/7/7
f 31/1/1 32/8/8 34/2/2
f 37/7/7 34/2/2 32/8/8
f 6/9/9 32/10/8 33/11/10
f 5/12/11 6/9/9 33/11/10
f 6/13/9 7/14/12 10/15/13
f 7/14/12 8/16/14 10/15/13
f 8/16/14 9/17/15 10/15/13
f 6/13/9 10/15/13 11/18/16
f 11/18/16 14/19/17 15/20/18
f 6/13/9 11/18/16 15/20/18
f 11/18/16 12/21/19 13/22/20
f 11/18/16 13/22/20 14/19/17
f 27/23/21 41/24/22 43/25/23
f 26/26/24 27/23/21 43/25/23
f 27/23/21 28/27/25 41/24/22
f 41/24/22 42/28/26 44/29/27
f 44/29/27 43/25/23 41/24/22
f 16/30/28 18/31/29 44/29/27
f 44/29/27 42/28/26 16/30/28
f 42/28/26 41/24/22 17/32/30
f 42/28/26 17/32/30 16/30/28
f 41/24/22 28/27/25 17/32/30
f 15/33/18 17/32/30 28/27/25
f 15/33/18 28/27/25 29/34/5
f 30/4/4 35/3/3 36/6/6
f 29/5/5 30/4/4 36/6/6
f 25/35/31 26/26/24 43/25/23
f 18/31/29 19/36/32 44/29/27
f 19/36/32 25/35/31 44/29/27
f 25/35/31 43/25/23 44/29/27
f 39/37/33 25/35/31 19/36/32
f 40/38/34 39/39/33 22/40/35
f 19/36/32 22/41/35 39/37/33
f 19/36/32 20/42/36 22/41/35
f 20/42/36 21/43/37 22/41/35
f 22/40/35 23/44/38 40/38/34
f 23/44/38 38/45/39 40/38/34
f 23/44/38 24/46/40 38/45/39
f 39/39/33 38/45/39 24/46/40
f 24/46/40 25/47/31 39/39/33
f 48/48/41 47/49/42 46/50/43
f 48/48/41 46/50/43 45/51/44
f 48/48/41 45/51/44 32/10/8
f 48/48/41 32/10/8 6/9/9
f 29/34/5 46/50/43 47/49/42
f 15/33/18 29/34/5 47/49/42
f 6/9/9 47/49/42 48/48/41
f 6/9/9 15/33/18 47/49/42
f 32/10/8 45/51/44 46/50/43
f 29/34/5 32/10/8 46/50/43
f 37/7/7 32/8/8 29/5/5
f 50/52/45 51/53/46 53/54/47
f 51/55/46 50/56/45 5/12/11
f 5/12/11 33/11/10 51/55/46
f 1/57/48 49/58/49 52/59/50
f 53/54/47 52/59/50 49/58/49
f 53/54/47 49/58/49 4/60/51
f 4/60/51 50/52/45 53/54/47
f 1/57/48 52/59/50 53/54/47
f 53/54/47 51/53/46 1/57/48
f 2/61/52 3/62/53 49/58/49
f 35/3/3 34/2/2 82/1/54
f 35/3/3 82/1/54 81/4/55
f 86/7/56 85/6/57 80/63/58
f 34/2/2 83/8/59 82/1/54
f 83/8/59 34/2/2 86/7/56
f 84/64/60 83/65/59 57/66/61
f 84/64/60 57/66/61 56/67/62
f 61/68/63 58/69/64 57/70/61
f 61/68/63 59/71/65 58/69/64
f 61/68/63 60/72/66 59/71/65
f 62/73/67 61/68/63 57/70/61
f 66/74/68 65/75/69 62/73/67
f 66/74/68 62/73/67 57/70/61
f 64/76/70 63/77/71 62/73/67
f 65/75/69 64/76/70 62/73/67
f 91/78/72 89/79/73 78/80/74
f 91/78/72 78/80/74 77/81/75
f 89/79/73 79/82/76 78/80/74
f 92/83/77 90/84/78 89/79/73
f 89/79/73 91/78/72 92/83/77
f 92/83/77 69/85/79 67/86/80
f 67/86/80 90/84/78 92/83/77
f 68/87/81 89/79/73 90/84/78
f 67/86/80 68/87/81 90/84/78
f 68/87/81 79/82/76 89/79/73
f 79/82/76 68/87/81 66/88/68
f 80/89/58 79/82/76 66/88/68
f 85/6/57 35/3/3 81/4/55
f 85/6/57 81/4/55 80/63/58
f 91/78/72 77/81/75 76/90/82
f 92/83/77 70/91/83 69/85/79
f 92/83/77 76/90/82 70/91/83
f 92/83/77 91/78/72 76/90/82
f 70/91/83 76/90/82 87/92/84
f 73/40/85 87/93/84 88/38/86
f 87/92/84 73/94/85 70/91/83
f 73/94/85 71/95/87 70/91/83
f 73/94/85 72/96/88 71/95/87
f 88/38/86 74/44/89 73/40/85
f 88/38/86 38/45/39 74/44/89
f 38/45/39 75/46/90 74/44/89
f 75/46/90 38/45/39 87/93/84
f 87/93/84 76/97/82 75/46/90
f 94/98/91 95/99/92 96/100/93
f 93/101/94 94/98/91 96/100/93
f 83/65/59 93/101/94 96/100/93
f 57/66/61 83/65/59 96/100/93
f 95/99/92 94/98/91 80/89/58
f 95/99/92 80/89/58 66/88/68
f 96/100/93 95/99/92 57/66/61
f 95/99/92 66/88/68 57/66/61
f 94/98/91 93/101/94 83/65/59
f 94/98/91 83/65/59 80/89/58
f 80/63/58 83/8/59 86/7/56
f 101/102/95 99/103/96 98/104/97
f 56/67/62 98/105/97 99/106/96
f 99/106/96 84/64/60 56/67/62
f 100/107/98 97/108/99 54/109/100
f 97/108/99 100/107/98 101/102/95
f 55/110/101 97/108/99 101/102/95
f 101/102/95 98/104/97 55/110/101
f 101/102/95 100/107/98 54/109/100
f 54/109/100 99/103/96 101/102/95
f 97/108/99 3/111/53 2/112/52
f 72/113/88 21/43/37 20/42/36
f 20/42/36 71/114/87 72/113/88
f 73/94/85 22/41/35 21/43/37
f 21/43/37 72/96/88 73/94/85
f 73/115/85 23/116/38 22/117/35
f 23/116/38 73/115/85 74/118/89
f 75/119/90 24/120/40 23/121/38
f 23/121/38 74/122/89 75/119/90
f 39/123/33 40/124/34 87/125/84
f 88/126/86 87/125/84 40/124/34
f 88/127/86 40/128/34 38/129/39
f 38/129/39 39/130/33 87/131/84
f 75/132/90 25/133/31 24/134/40
f 25/133/31 75/132/90 76/135/82
f 76/90/82 26/26/24 25/35/31
f 26/26/24 76/90/82 77/81/75
f 78/80/74 27/23/21 26/26/24
f 26/26/24 77/81/75 78/80/74
f 79/82/76 28/27/25 27/23/21
f 27/23/21 78/80/74 79/82/76
f 80/89/58 29/34/5 28/27/25
f 28/27/25 79/82/76 80/89/58
f 85/136/57 36/137/6 35/138/3
f 34/138/2 37/136/7 86/137/56
f 86/139/56 37/140/7 36/141/6
f 36/141/6 85/142/57 86/139/56
f 81/143/55 30/144/4 29/145/5
f 29/145/5 80/146/58 81/143/55
f 81/147/55 31/148/1 30/149/4
f 31/148/1 81/147/55 82/150/54
f 83/151/59 32/152/8 31/153/1
f 31/153/1 82/154/54 83/151/59
f 84/64/60 33/11/10 32/10/8
f 32/10/8 83/65/59 84/64/60
f 99/106/96 51/55/46 33/11/10
f 33/11/10 84/64/60 99/106/96
f 1/57/48 51/53/46 99/103/96
f 99/103/96 54/109/100 1/57/48
f 54/109/100 49/58/49 1/57/48
f 49/58/49 54/109/100 97/155/99
f 102/156/102 4/60/51 3/62/53
f 3/111/53 55/110/101 102/157/102
f 3/62/53 4/60/51 49/58/49
f 97/108/99 55/110/101 3/111/53
f 102/156/102 55/158/101 4/60/51
f 98/159/97 50/52/45 4/60/51
f 4/60/51 55/158/101 98/159/97
f 5/12/11 50/56/45 98/160/97
f 98/160/97 56/161/62 5/12/11
f 2/61/52 49/58/49 97/155/99
f 56/161/62 6/9/9 5/12/11
f 6/9/9 56/161/62 57/162/61
f 57/163/61 7/14/12 6/13/9
f 7/14/12 57/163/61 58/164/64
f 58/164/64 8/16/14 7/14/12
f 8/16/14 58/164/64 59/165/65
f 59/165/65 9/17/15 8/16/14
f 9/17/15 59/165/65 60/166/66
f 60/166/66 10/15/13 9/17/15
f 10/15/13 60/166/66 61/167/63
f 62/168/67 11/18/16 10/15/13
f 10/15/13 61/167/63 62/168/67
f 62/168/67 12/21/19 11/18/16
f 12/21/19 62/168/67 63/169/71
f 64/170/70 13/22/20 12/21/19
f 12/21/19 63/169/71 64/170/70
f 64/170/70 14/19/17 13/22/20
f 14/19/17 64/170/70 65/171/69
f 66/172/68 15/20/18 14/19/17
f 14/19/17 65/171/69 66/172/68
f 68/173/81 17/32/30 15/33/18
f 15/33/18 66/174/68 68/173/81
f 16/30/28 17/32/30 68/173/81
f 68/173/81 67/175/80 16/30/28
f 67/175/80 18/31/29 16/30/28
f 18/31/29 67/175/80 69/176/79
f 70/177/83 19/36/32 18/31/29
f 18/31/29 69/176/79 70/177/83
f 70/177/83 20/42/36 19/36/32
f 20/42/36 70/177/83 71/114/87
# 208 triangles in group

# 208 triangles total

